<svg xmlns="http://www.w3.org/2000/svg" xmlns:xlink="http://www.w3.org/1999/xlink" viewBox="0 0 81 81" fill="#fff" fill-rule="evenodd" stroke="#000" stroke-linecap="round" stroke-linejoin="round"><use xlink:href="#A" x=".5" y=".5"/><symbol id="A" overflow="visible"><path d="M37.2 30.55L23.9 42.827c.596.99.993 2.178.993 3.168 0 .594 0 1.188-.198 1.782l13.697 8.317v-23.96c-.199 0-.993-1.386-1.191-1.584zm6.843-.19c-.199.198-2.382 1.782-2.581 1.98v23.762l13.697-8.713c-.199-.594-.397-.99-.397-1.386 0-.792.198-1.584.397-2.376L44.043 30.36zM40.099 0L0 47.525 39.901 80 80 47.723 40.099 0zM61.34 52.475c-1.787 0-3.375-.792-4.566-1.98l-10.918 7.723c.794.99.993 2.178.993 3.564 0 3.564-2.978 6.337-6.352 6.337-3.573 0-6.352-2.772-6.352-6.337 0-1.584.596-2.97 1.588-4.159L23.028 50.89c-1.191 1.188-2.779 1.782-4.367 1.782-3.573 0-6.352-2.772-6.352-6.337S15.285 40 18.66 40c.992 0 1.985.198 2.978.792l13.3-12.277c-.992-1.188-1.389-2.772-1.389-4.158 0-3.96 3.176-6.931 7.146-6.931s7.146 3.168 7.146 6.931c0 1.386-.397 2.574-1.191 3.762l11.315 13.267c.992-.792 2.382-1.188 3.772-1.188 3.573 0 6.352 2.772 6.352 6.337-.397 2.97-3.375 5.941-6.749 5.941z" fill="#0078d7" stroke="none"/></symbol></svg>